Coordinates
version=1
nRows=9
nColumns=42
inDegrees=yes

Units are S.I. units (second, meters, Newtons, ...)
Angles are in degrees.

endheader
time	pelvis_tilt	pelvis_list	pelvis_rotation	pelvis_tx	pelvis_ty	pelvis_tz	hip_flexion_r	hip_adduction_r	hip_rotation_r	knee_angle_r	knee_vv_r	knee_rot_r	ankle_angle_r	subtalar_angle_r	mtp_angle_r	hip_flexion_l	hip_adduction_l	hip_rotation_l	knee_angle_l	knee_vv_l	knee_rot_l	ankle_angle_l	subtalar_angle_l	mtp_angle_l	lumbar_extension	lumbar_bending	lumbar_rotation	arm_flex_r	arm_add_r	arm_rot_r	elbow_flex_r	pro_sup_r	wrist_flex_r	wrist_dev_r	arm_flex_l	arm_add_l	arm_rot_l	elbow_flex_l	pro_sup_l	wrist_flex_l	wrist_dev_l
      3.65000000	     -3.52832534	     -6.04334319	      0.23532483	      0.10058021	      0.96246506	      2.61306153	     34.91896379	      4.23553636	      6.14444313	    -59.57940356	      1.51067154	     -4.47476878	     -2.35639346	      0.00000000	      0.00000000	     -5.15601762	    -13.94537072	      6.34138482	    -24.51017210	     -2.85221004	     10.88825674	     -5.81178748	      0.00000000	      0.00000000	    -15.83823827	      1.98366494	     -4.34692468	    -33.53032119	    -25.02242859	     -0.32177327	    119.02844622	     86.51662706	      0.00000000	      0.00000000	     -0.92553093	    -31.79817693	     -1.22615492	    130.14648909	     85.94366927	      0.00000000	      0.00000000
      3.66000000	     -3.79141330	     -6.43613729	      0.07599481	      0.10301382	      0.97003713	      2.61469423	     34.50638269	      4.38364166	      6.94863389	    -52.42667515	      2.28122351	     -3.82015687	     -3.66188547	      0.00000000	      0.00000000	     -7.17270406	    -14.68168030	      6.24895033	    -22.06394433	     -3.15891714	     11.56429929	    -11.17537300	      0.00000000	      0.00000000	    -15.49852054	      2.68931112	     -4.25496077	    -34.71816437	    -24.60021862	     -1.49824726	    118.89400838	     86.51662706	      0.00000000	      0.00000000	     -1.49175771	    -31.34944482	     -0.65055362	    130.66243160	     85.94366927	      0.00000000	      0.00000000
      3.67000000	     -4.03084007	     -6.73748795	     -0.11259770	      0.10546416	      0.97661982	      2.61618637	     33.80619142	      4.43787593	      7.67283277	    -44.99630506	      2.74164028	     -3.16751425	     -5.27429720	      0.00000000	      0.00000000	     -9.01518179	    -15.19618093	      5.77045075	    -19.97853790	     -3.24459400	     12.01922664	    -16.03771359	      0.00000000	      0.00000000	    -15.20139331	      3.31424221	     -4.11168120	    -35.83129198	    -24.26489670	     -2.68848143	    118.77405369	     86.51662706	      0.00000000	      0.00000000	     -2.16473896	    -30.89554005	     -0.04441660	    131.21446051	     85.94366927	      0.00000000	      0.00000000
      3.68000000	     -4.23103262	     -6.90180989	     -0.30081892	      0.10794006	      0.98204717	      2.61745657	     32.86878639	      4.33573571	      8.10294020	    -37.50733159	      2.82150614	     -2.44199348	     -7.18984537	      0.00000000	      0.00000000	    -10.63580776	    -15.43837031	      4.97056127	    -18.49446571	     -3.09652904	     12.21525975	    -20.04882933	      0.00000000	      0.00000000	    -14.96020381	      3.81179926	     -3.95682082	    -36.86090792	    -24.03400780	     -3.86773224	    118.67794709	     86.51662706	      0.00000000	      0.00000000	     -2.90650517	    -30.45954635	      0.60572063	    131.79695097	     85.94366927	      0.00000000	      0.00000000
      3.69000000	     -4.37582421	     -6.90103026	     -0.45093587	      0.11049434	      0.98630277	      2.61842016	     31.77319705	      4.04592352	      8.02805785	    -30.25412081	      2.54051238	     -1.58840689	     -9.36271478	      0.00000000	      0.00000000	    -11.99296829	    -15.39916194	      3.97925866	    -17.83933963	     -2.75265406	     12.19362292	    -22.97393690	      0.00000000	      0.00000000	    -14.78352901	      4.15111133	     -3.82031110	    -37.79725286	    -23.91226976	     -5.01320786	    118.60079019	     86.51662706	      0.00000000	      0.00000000	     -3.67935240	    -30.06220004	      1.31126203	    132.39298608	     85.94366927	      0.00000000	      0.00000000
      3.70000000	     -4.44895932	     -6.73616075	     -0.52779212	      0.11310477	      0.98934482	      2.61907178	     30.62275979	      3.57958691	      7.29590642	    -23.57459176	      2.00467816	     -0.59314663	    -11.70458582	      0.00000000	      0.00000000	    -13.04722520	    -15.10861182	      2.96912823	    -18.16991985	     -2.29448037	     12.06164476	    -24.74494682	      0.00000000	      0.00000000	    -14.67337597	      4.32710976	     -3.72056188	    -38.62425870	    -23.89512504	     -6.10413219	    118.52686705	     86.51662706	      0.00000000	      0.00000000	     -4.45072398	    -29.71994964	      2.07540741	    132.97690942	     85.94366927	      0.00000000	      0.00000000
      3.71000000	     -4.44514642	     -6.43918253	     -0.51262953	      0.11567376	      0.99116398	      2.61952655	     29.52638171	      2.98431712	      5.86219952	    -17.79988591	      1.36834654	      0.50569038	    -14.09223861	      0.00000000	      0.00000000	    -13.76684956	    -14.62518914	      2.12833041	    -19.53692331	     -1.82693806	     11.95995398	    -25.46824471	      0.00000000	      0.00000000	    -14.62708349	      4.36066951	     -3.66133462	    -39.31680317	    -23.97480933	     -7.12367261	    118.43567265	     86.51662706	      0.00000000	      0.00000000	     -5.19620860	    -29.44252656	      2.88911662	    133.51811941	     85.94366927	      0.00000000	      0.00000000
      3.72000000	     -4.37659841	     -6.05850735	     -0.41191278	      0.11805438	      0.99181318	      2.61994548	     28.57610177	      2.32884565	      3.81298350	    -13.20179749	      0.78164687	      1.62512570	    -16.37958277	      0.00000000	      0.00000000	    -14.14119620	    -14.02096836	      1.62991892	    -21.88585159	     -1.45255532	     12.02056378	    -25.38699799	      0.00000000	      0.00000000	    -14.64173264	      4.29116794	     -3.62840888	    -39.84258946	    -24.14654312	     -8.06146967	    118.30779072	     86.51662706	      0.00000000	      0.00000000	     -5.90138620	    -29.23036245	      3.73052947	    133.98550285	     85.94366927	      0.00000000	      0.00000000
      3.73000000	     -4.26097543	     -5.64156076	     -0.25811837	      0.12014038	      0.99135985	      2.62043338	     27.83050042	      1.68297741	      1.35211846	     -9.95446296	      0.34631523	      2.66081043	    -18.40901805	      0.00000000	      0.00000000	    -14.18920959	    -13.36536312	      1.59754649	    -25.08726526	     -1.25095710	     12.32920713	    -24.81239857	      0.00000000	      0.00000000	    -14.71741805	      4.16624115	     -3.58884224	    -40.16898058	    -24.41231856	     -8.91495335	    118.12819530	     86.51662706	      0.00000000	      0.00000000	     -6.56297484	    -29.07330724	      4.56787317	    134.35171635	     85.94366927	      0.00000000	      0.00000000
